# xmcd
#
# Track frame offsets: 
#        150
#        13157
#        29067
#        44310
#        61607
#        76892
#        90122
#        107637
#        122690
#        139575
#        155897
#        174107
#
# Disc length: 2470 seconds
#
# Revision: 0
# Processed by: cddbd v1.4PL0 Copyright (c) Steve Scherf et al.
# Submitted via: ExactAudioCopy v0.90b4
#
DISCID=8b09a40c
DTITLE=Super Model - It Ain't Pretty
DYEAR=1900
DGENRE=Acid Punk
TTITLE0=The Drink Song
TTITLE1=Led Down
TTITLE2=Photograph
TTITLE3=Puppet
TTITLE4=Do You Believe?
TTITLE5=BEst Of Me
TTITLE6=She Rox
TTITLE7=Timmy Dugan
TTITLE8=kanikaze
TTITLE9=Shoot
TTITLE10=Shoot
TTITLE11=Sex And Drugs And Steven
EXTD=
EXTT0=
EXTT1=
EXTT2=
EXTT3=
EXTT4=
EXTT5=
EXTT6=
EXTT7=
EXTT8=
EXTT9=
EXTT10=
EXTT11=
PLAYORDER=
